<svg width="32" height="64" viewBox="0 0 32 64" fill="none" xmlns="http://www.w3.org/2000/svg">
<path d="M12.6666 1H3.33334C1.49534 1 0 2.49534 0 4.33334V9.66667C0 11.5047 1.49534 13 3.33334 13H5.33333C5.70199 13 5.99999 12.702 5.99999 12.3334C5.99999 11.9647 5.70199 11.6667 5.33333 11.6667H3.33334C2.23068 11.6667 1.33334 10.7694 1.33334 9.6667V4.33334C1.33334 3.23068 2.23068 2.33334 3.33334 2.33334H12.6667C13.7693 2.33334 14.6667 3.23068 14.6667 4.33334V9.66667C14.6667 10.7693 13.7693 11.6667 12.6667 11.6667V9.66667C12.6667 9.42067 12.5313 9.19467 12.3147 9.07867C12.098 8.96267 11.8347 8.97602 11.63 9.11202L7.63002 11.7787C7.44467 11.9027 7.33336 12.1107 7.33336 12.3333C7.33336 12.556 7.4447 12.764 7.63002 12.888L11.63 15.5546C11.7414 15.6286 11.8707 15.6666 12 15.6666C12.108 15.6666 12.216 15.6406 12.3147 15.588C12.5313 15.472 12.6667 15.246 12.6667 15V13C14.5047 13 16 11.5046 16 9.66664V4.33334C16 2.49534 14.5046 1 12.6666 1Z" fill="white"/>
<path d="M5.76488 37.2446L7.55197 33.6124C7.73504 33.2403 8.26504 33.2403 8.44811 33.6124L10.2352 37.2446L14.2381 37.8237C14.648 37.883 14.8119 38.3873 14.5152 38.6767L14.2253 38.9595C13.3885 38.4753 12.3 38.5916 11.5841 39.3083L7.65344 43.2432C7.33891 43.5581 7.11577 43.9525 7.00791 44.3845L6.93031 44.6953L4.4216 46.0181C4.05501 46.2114 3.62627 45.8996 3.69663 45.4908L4.38348 41.5007L1.48504 38.6769C1.18811 38.3876 1.35188 37.883 1.76195 37.8237L5.76488 37.2446Z" fill="white" fill-opacity="0.7"/>
<path d="M8.12433 43.7146L12.055 39.7797C12.6495 39.1845 13.6132 39.1845 14.2077 39.7797C14.8021 40.3747 14.8021 41.3395 14.2077 41.9346L10.2769 45.8695C10.0478 46.099 9.76066 46.2617 9.44619 46.3404L8.22706 46.6455C7.69686 46.7783 7.21659 46.2975 7.34919 45.7667L7.65393 44.5463C7.73259 44.2315 7.89513 43.944 8.12433 43.7146Z" fill="white" fill-opacity="0.5"/>
<path d="M9.44236 58.4972C9.60263 58.2301 9.49578 57.9096 9.2821 57.7493L8.48077 57.2685V56.0933C8.48077 55.7727 8.26708 55.5591 7.94655 55.5591C7.62602 55.5591 7.41234 55.7727 7.41234 56.0933V57.2685L6.61101 57.7493C6.3439 57.9096 6.29048 58.2301 6.45074 58.4972C6.61101 58.7644 6.93154 58.8178 7.19865 58.6575L7.94655 58.1767H7.99998H8.0534L8.8013 58.6575C8.8013 58.7644 8.90814 58.7644 9.01499 58.7644C9.17525 58.7644 9.38894 58.6575 9.44236 58.4972Z" fill="white" fill-opacity="0.7"/>
<path d="M5.27543 54.4906H10.6176C10.7779 54.4906 10.9381 54.4372 11.045 54.2769C11.1518 54.1701 11.2052 54.0098 11.1518 53.8495C10.9916 53.0482 10.4039 52.4072 9.6026 52.1935C9.38891 52.1401 9.22864 51.9798 9.17522 51.7661C9.38891 51.499 9.54917 51.125 9.54917 50.7511V49.6827C9.54917 48.7745 8.85469 48.08 7.94652 48.08C7.03835 48.08 6.34387 48.7745 6.34387 49.6827V50.7511C6.34387 51.125 6.50413 51.499 6.71782 51.7661C6.6644 51.9798 6.50413 52.1401 6.29045 52.1935C5.48912 52.4072 4.90148 53.0482 4.79464 53.8495C4.74122 54.0098 4.79464 54.1701 4.90148 54.2769C4.9549 54.4372 5.11517 54.4906 5.27543 54.4906Z" fill="white" fill-opacity="0.7"/>
<path d="M13.8764 60.741C13.6627 60.6875 13.5024 60.5273 13.449 60.3136C13.6627 60.0465 13.823 59.6725 13.823 59.2986V58.2301C13.823 57.322 13.1285 56.6275 12.2203 56.6275C11.3122 56.6275 10.6177 57.322 10.6177 58.2301V59.2986C10.6177 59.6725 10.7779 60.0465 10.9916 60.3136C10.9382 60.5273 10.7779 60.6875 10.5643 60.741C9.76293 60.9546 9.17529 61.5957 9.06844 62.397C9.01502 62.5573 9.06844 62.7176 9.17529 62.8244C9.28213 62.9312 9.4424 63.0381 9.60266 63.0381H14.9448C15.1051 63.0381 15.2654 62.9847 15.3722 62.8244C15.4791 62.7176 15.5325 62.5573 15.4791 62.397C15.2654 61.5957 14.6243 60.9546 13.8764 60.741Z" fill="white" fill-opacity="0.7"/>
<path d="M5.32891 60.741C5.11523 60.6875 4.95496 60.5273 4.90154 60.3136C5.11523 60.0465 5.27549 59.6725 5.27549 59.2986V58.2301C5.27549 57.322 4.58101 56.6275 3.67284 56.6275C2.76467 56.6275 2.07019 57.322 2.07019 58.2301V59.2986C2.07019 59.6725 2.23045 60.0465 2.44414 60.3136C2.39072 60.5273 2.23045 60.6875 2.01677 60.741C1.21544 60.9546 0.627801 61.5957 0.520958 62.397C0.467536 62.5573 0.520958 62.7176 0.627801 62.8244C0.681223 62.9847 0.841488 63.0381 1.00175 63.0381H6.34393C6.50419 63.0381 6.66446 62.9847 6.7713 62.8244C6.87814 62.7176 6.93157 62.5573 6.87814 62.397C6.71788 61.5957 6.07682 60.9546 5.32891 60.741Z" fill="white" fill-opacity="0.7"/>
<path d="M14 18L8 24M14 18V21.375M14 18H10.625M13.25 24.375V27.6C13.25 28.4401 13.25 28.8602 13.0865 29.181C12.9427 29.4632 12.7132 29.6927 12.431 29.8365C12.1102 30 11.6901 30 10.85 30H4.4C3.55992 30 3.13988 30 2.81902 29.8365C2.53677 29.6927 2.3073 29.4632 2.16349 29.181C2 28.8602 2 28.4401 2 27.6V21.15C2 20.3099 2 19.8899 2.16349 19.569C2.3073 19.2868 2.53677 19.0573 2.81902 18.9135C3.13988 18.75 3.55992 18.75 4.4 18.75H7.625" stroke="white" stroke-width="1.7" stroke-linecap="round" stroke-linejoin="round"/>
</svg>
